<svg xmlns="http://www.w3.org/2000/svg" version="1.1" xmlns:xlink="http://www.w3.org/1999/xlink" width="512" height="512" x="0" y="0" viewBox="0 0 64 64" style="enable-background:new 0 0 512 512" xml:space="preserve" class=""><g><path fill="#f49d3e" d="M49 34.5A14.5 14.5 0 1 0 63.5 49 14.517 14.517 0 0 0 49 34.5zm6.388 16.513-8.764 4.382a2.25 2.25 0 0 1-3.256-2.013v-8.764a2.25 2.25 0 0 1 3.256-2.013l8.764 4.382a2.25 2.25 0 0 1 0 4.026z" opacity="1" data-original="#3e3ef4" class=""></path><path fill="#f49d3e" d="M45.868 52.978 53.823 49l-7.955-3.978z" opacity="1" data-original="#3e3ef4" class=""></path><circle cx="21.5" cy="28.5" r="1.5" fill="#ffffff" opacity="1" data-original="#000000" class=""></circle><path d="M40.5 14.5a7.006 7.006 0 0 0-6.788 5.321A14.992 14.992 0 1 0 21.5 43.5c8.528 0 15-7.187 15-14.5v-7.5a4 4 0 0 1 8 0V26a4.5 4.5 0 0 0 9 0v-2a1.502 1.502 0 0 1 1.5-1.5h1a1.5 1.5 0 0 0 0-3h-1a4.505 4.505 0 0 0-4.5 4.5v2a1.5 1.5 0 0 1-3 0v-4.5a7.008 7.008 0 0 0-7-7zM31 31a2.5 2.5 0 1 1 2.5-2.5A2.503 2.503 0 0 1 31 31zm-7-12a2.5 2.5 0 1 1-2.5-2.5A2.503 2.503 0 0 1 24 19zm-12 7a2.5 2.5 0 1 1-2.5 2.5A2.503 2.503 0 0 1 12 26zm7 12a2.5 2.5 0 1 1 2.5 2.5A2.502 2.502 0 0 1 19 38zm7.858 1.222a5.5 5.5 0 1 0-10.716 0 12.06 12.06 0 0 1-5.364-5.364 5.5 5.5 0 1 0 0-10.716 12.06 12.06 0 0 1 5.363-5.364 5.5 5.5 0 1 0 10.717 0 12.06 12.06 0 0 1 5.364 5.364 5.5 5.5 0 1 0 0 10.716 12.06 12.06 0 0 1-5.364 5.364z" fill="#ffffff" opacity="1" data-original="#000000" class=""></path><path d="M59 .5H5A4.505 4.505 0 0 0 .5 5v46A4.505 4.505 0 0 0 5 55.5h25a1.5 1.5 0 0 0 0-3H5A1.502 1.502 0 0 1 3.5 51V9.5h57v25.682a1.5 1.5 0 0 0 3 0V5A4.505 4.505 0 0 0 59 .5zm-42.5 3v3h-5v-3zM3.5 5A1.502 1.502 0 0 1 5 3.5h3.5v3h-5zm16 1.5v-3H59A1.502 1.502 0 0 1 60.5 5v1.5z" fill="#ffffff" opacity="1" data-original="#000000" class=""></path><path d="M8 49.5h22a1.5 1.5 0 0 0 0-3H8a1.5 1.5 0 0 0 0 3z" fill="#ffffff" opacity="1" data-original="#000000" class=""></path></g></svg>